<?xml version="1.0" encoding="UTF-8"?>
<svg id="Capa_2" data-name="Capa 2" xmlns="http://www.w3.org/2000/svg" viewBox="0 0 62.388 20.019">
  <defs>
    <style>
      .cls-1 {
        fill: #585857;
      }

      .cls-1, .cls-2 {
        stroke-width: 0px;
      }

      .cls-2 {
        fill: #00bfb3;
      }
    </style>
  </defs>
  <g id="Capa_1-2" data-name="Capa 1">
    <g>
      <path class="cls-2" d="m22.03,5.62L12.014.111c-.128-.076-.278-.115-.423-.111h-.018s-.015,0-.015,0c-.152-.004-.305.034-.433.11L1.117,5.62C.374,6.024-.042,6.723.003,7.488c.043.73.525,1.379,1.227,1.654l.36.135v7.639c-.007.213-.003,1.32.761,2.147.484.524,1.173.814,1.992.84h.025c.025,0,.049-.003.073-.006l2.275-.002c.057,0,.115-.007.177-.021.376-.075.65-.408.65-.792v-2.252c.048-1.315.42-2.257,1.136-2.881.163-.142.261-.338.276-.554s-.055-.423-.197-.586c-.142-.163-.338-.261-.554-.276-.215-.015-.424.055-.586.197-1.06.922-1.629,2.287-1.691,4.056v1.493s-1.612,0-1.612,0c-.347-.024-.599-.125-.771-.308-.348-.37-.339-.977-.338-1.001,0-.013.001-.026.001-.039v-8.215c0-.335-.211-.639-.524-.757l-.873-.327c-.134-.052-.187-.159-.192-.241-.008-.129.092-.256.279-.356.011-.006.021-.011.028-.016L11.568,1.724l9.652,5.294c.01.006.021.012.031.018.188.101.287.227.279.356-.005.078-.055.188-.181.237l-.884.331c-.314.118-.524.422-.524.757v8.247c.001.026.011.637-.337,1.008-.171.182-.421.282-.759.307h-1.344v-1.475c-.081-2.299-1.301-4.066-3.353-4.868.707-.706,1.095-1.637,1.095-2.634,0-2.058-1.674-3.732-3.733-3.732s-3.733,1.674-3.733,3.732,1.674,3.732,3.733,3.732c.005,0,.01,0,.019,0,.079.028.153.043.224.046,2.54.119,4.046,1.492,4.131,3.766v1.445h-6.282c-.443,0-.803.36-.803.803s.36.803.803.803h9.081s.021.001.021.001c.024.003.048.006.073.006h.026c.024-.001.047-.003.07-.005l.107-.003c.06,0,.122-.008.183-.023.661-.089,1.225-.369,1.631-.808.764-.827.768-1.934.761-2.145v-7.641l.37-.139c.695-.272,1.173-.92,1.216-1.65.046-.766-.371-1.464-1.113-1.868Zm-8.402,3.682c0,1.167-.95,2.117-2.117,2.117s-2.117-.95-2.117-2.117.95-2.117,2.117-2.117,2.117.95,2.117,2.117Z"/>
      <g>
        <path class="cls-1" d="m27.581,8.807v.314h-1.835v-2.529h1.785v.314h-1.424v.776h1.268v.307h-1.268v.817h1.474Z"/>
        <path class="cls-1" d="m30.388,6.592v2.529h-.296l-1.517-1.886v1.886h-.361v-2.529h.296l1.518,1.886v-1.886h.361Z"/>
        <path class="cls-1" d="m31.639,8.982c-.203-.112-.363-.266-.479-.463-.115-.196-.173-.417-.173-.663s.058-.466.173-.663c.115-.197.276-.351.48-.463s.434-.168.687-.168c.198,0,.378.033.542.099s.303.164.419.294l-.235.228c-.19-.2-.427-.3-.711-.3-.188,0-.358.042-.509.127-.152.084-.27.2-.356.349-.085.148-.128.313-.128.496s.043.349.128.497.204.265.356.349c.152.085.321.127.509.127.282,0,.519-.101.711-.303l.235.227c-.116.13-.256.229-.421.296-.165.068-.346.101-.544.101-.253,0-.481-.056-.685-.168Z"/>
        <path class="cls-1" d="m34.102,8.861c-.188-.193-.282-.469-.282-.831v-1.438h.362v1.424c0,.542.237.813.712.813.231,0,.408-.067.531-.2.123-.134.184-.338.184-.612v-1.424h.351v1.438c0,.364-.094.641-.282.833-.188.192-.451.287-.788.287s-.6-.097-.788-.289Z"/>
        <path class="cls-1" d="m38.581,8.807v.314h-1.835v-2.529h1.785v.314h-1.424v.776h1.269v.307h-1.269v.817h1.474Z"/>
        <path class="cls-1" d="m39.4,9.062c-.177-.059-.316-.136-.418-.23l.134-.282c.097.086.22.157.37.212.151.054.305.081.465.081.21,0,.366-.036.469-.107.104-.071.155-.166.155-.283,0-.087-.028-.157-.085-.212s-.127-.096-.21-.125-.2-.061-.352-.098c-.19-.046-.344-.091-.461-.137s-.217-.116-.3-.212-.125-.223-.125-.385c0-.135.035-.256.106-.365.071-.109.179-.195.324-.26s.324-.098.538-.098c.149,0,.296.019.441.058.144.039.268.094.372.166l-.119.289c-.106-.067-.219-.118-.339-.154-.12-.035-.239-.052-.354-.052-.205,0-.358.037-.461.112-.102.074-.154.171-.154.289,0,.087.029.157.086.212.058.054.13.097.215.127s.201.062.349.096c.19.046.343.092.459.137.115.046.215.116.298.21.083.094.125.221.125.38,0,.132-.036.254-.108.363-.072.11-.182.196-.329.26-.147.064-.328.096-.542.096-.19,0-.374-.029-.551-.088Z"/>
        <path class="cls-1" d="m41.97,6.907h-.867v-.314h2.092v.314h-.867v2.215h-.357v-2.215Z"/>
        <path class="cls-1" d="m45.121,8.489h-1.344l-.278.632h-.372l1.145-2.529h.358l1.149,2.529h-.38l-.278-.632Zm-.127-.289l-.545-1.239-.546,1.239h1.091Z"/>
      </g>
      <g>
        <path class="cls-2" d="m25.745,10.765h1.129v3.349h-1.129v-3.349Z"/>
        <path class="cls-2" d="m30.992,10.765v3.349h-.928l-1.272-1.521v1.521h-1.1v-3.349h.928l1.273,1.521v-1.521h1.1Z"/>
        <path class="cls-2" d="m32.411,11.641h-.981v-.876h3.091v.876h-.981v2.474h-1.129v-2.474Z"/>
        <path class="cls-2" d="m37.744,13.263v.851h-2.784v-3.349h2.722v.852h-1.612v.392h1.416v.814h-1.416v.44h1.674Z"/>
        <path class="cls-2" d="m39.615,13.272h-.306v.842h-1.129v-3.349h1.612c.309,0,.579.051.809.153.229.102.407.249.531.44.125.192.187.415.187.67,0,.239-.054.448-.163.627-.108.179-.265.32-.469.426l.703,1.033h-1.206l-.569-.842Zm.45-1.533c-.076-.069-.191-.103-.344-.103h-.411v.785h.411c.153,0,.268-.034.344-.103s.115-.165.115-.29-.038-.221-.115-.29Z"/>
        <path class="cls-2" d="m42.519,13.969c-.284-.149-.507-.356-.667-.622s-.242-.569-.242-.906.081-.64.242-.907.383-.473.667-.622c.284-.148.603-.222.957-.222.325,0,.616.057.871.172s.466.281.632.498l-.713.637c-.207-.262-.451-.392-.732-.392-.236,0-.426.076-.569.227-.144.152-.216.355-.216.61s.072.459.216.61c.143.152.333.227.569.227.281,0,.525-.131.732-.392l.713.637c-.166.217-.376.383-.632.498s-.545.172-.871.172c-.354,0-.673-.074-.957-.222Z"/>
        <path class="cls-2" d="m48.088,13.263v.851h-2.784v-3.349h2.722v.852h-1.612v.392h1.416v.814h-1.416v.44h1.674Z"/>
        <path class="cls-2" d="m51.824,10.765v3.349h-.928l-1.272-1.521v1.521h-1.1v-3.349h.928l1.273,1.521v-1.521h1.1Z"/>
        <path class="cls-2" d="m52.954,14.098c-.263-.062-.479-.146-.648-.251l.363-.823c.16.093.338.167.536.222.198.056.388.083.569.083.156,0,.268-.015.335-.045.067-.03.1-.076.1-.136,0-.07-.044-.123-.132-.158-.088-.035-.232-.073-.433-.115-.258-.055-.474-.112-.646-.175-.172-.062-.322-.164-.45-.306-.128-.142-.191-.334-.191-.576,0-.21.059-.402.177-.574.118-.172.294-.307.529-.406.235-.099.519-.149.854-.149.23,0,.455.025.677.074.222.05.417.122.586.218l-.34.818c-.328-.166-.64-.249-.933-.249-.29,0-.435.07-.435.21,0,.067.043.117.129.151.086.034.228.07.426.108.255.048.47.103.646.165s.328.164.457.304c.129.14.194.332.194.574,0,.21-.059.401-.177.572-.118.17-.294.306-.529.406-.234.101-.519.151-.854.151-.277,0-.548-.031-.811-.094Z"/>
        <path class="cls-2" d="m57.942,13.531h-1.273l-.225.584h-1.148l1.464-3.349h1.11l1.464,3.349h-1.167l-.225-.584Zm-.311-.814l-.325-.842-.325.842h.651Z"/>
        <path class="cls-2" d="m59.747,10.765h1.129v2.474h1.512v.876h-2.641v-3.349Z"/>
      </g>
      <g>
        <path class="cls-1" d="m28.973,19.172v.777h-3.112v-.618l1.588-1.5c.169-.161.282-.299.341-.415.059-.116.088-.23.088-.344,0-.165-.056-.291-.168-.38-.112-.088-.275-.132-.491-.132-.18,0-.343.034-.488.103-.145.069-.267.172-.365.309l-.694-.447c.161-.239.382-.426.665-.561.283-.135.606-.203.971-.203.306,0,.574.05.803.15.23.1.408.241.535.424s.191.397.191.644c0,.224-.047.433-.141.629-.094.196-.277.42-.547.671l-.947.894h1.771Z"/>
        <path class="cls-1" d="m31.062,19.767c-.267-.169-.476-.413-.626-.733-.151-.32-.226-.701-.226-1.144s.075-.825.226-1.144.36-.564.626-.733c.267-.168.571-.253.912-.253s.645.085.912.253c.267.169.476.413.626.733s.226.701.226,1.144-.075.824-.226,1.144c-.151.32-.36.564-.626.733-.267.169-.571.253-.912.253s-.645-.084-.912-.253Zm1.503-.877c.143-.215.215-.549.215-1s-.072-.784-.215-1-.34-.324-.591-.324c-.247,0-.442.108-.585.324-.143.216-.215.549-.215,1s.072.784.215,1c.143.216.338.324.585.324.251,0,.448-.108.591-.324Z"/>
        <path class="cls-1" d="m38.098,19.172v.777h-3.112v-.618l1.588-1.5c.169-.161.282-.299.341-.415.059-.116.088-.23.088-.344,0-.165-.056-.291-.168-.38-.112-.088-.275-.132-.491-.132-.18,0-.343.034-.488.103-.145.069-.267.172-.365.309l-.694-.447c.161-.239.382-.426.665-.561.283-.135.606-.203.971-.203.306,0,.574.05.803.15.23.1.408.241.535.424s.191.397.191.644c0,.224-.047.433-.141.629-.094.196-.277.42-.547.671l-.947.894h1.771Z"/>
        <path class="cls-1" d="m42.042,17.725c.276.231.415.541.415.93,0,.251-.063.479-.188.685-.126.206-.317.371-.573.494-.257.124-.574.185-.95.185-.29,0-.576-.038-.856-.114-.28-.077-.519-.185-.715-.327l.377-.729c.157.118.337.209.541.273.204.065.414.097.629.097.239,0,.427-.047.565-.141.137-.094.206-.226.206-.394,0-.177-.072-.31-.215-.4-.143-.09-.391-.135-.744-.135h-1.053l.212-2.318h2.512v.765h-1.718l-.065.782h.335c.581,0,1.009.115,1.286.347Z"/>
      </g>
    </g>
  </g>
</svg>